<?xml version="1.0" encoding="utf-8"?>
<!-- Generator: Adobe Illustrator 16.0.0, SVG Export Plug-In . SVG Version: 6.00 Build 0)  -->
<!DOCTYPE svg PUBLIC "-//W3C//DTD SVG 1.1//EN" "http://www.w3.org/Graphics/SVG/1.1/DTD/svg11.dtd">
<svg version="1.1" id="Layer_1" focusable="false" xmlns="http://www.w3.org/2000/svg" xmlns:xlink="http://www.w3.org/1999/xlink"
	 x="0px" y="0px" width="612px" height="792px" viewBox="0 0 612 792" enable-background="new 0 0 612 792" xml:space="preserve">
<path fill="#FFFFFF" d="M497.25,147.375c0-10.566-8.559-19.125-19.125-19.125h-76.5c-10.567,0-19.125,8.559-19.125,19.125v57.375
	h114.75V147.375z M76.393,281.238C73.392,393.418,4.136,417.779,0,572.906V625.5c0,21.122,17.129,38.25,38.25,38.25H153
	c21.121,0,38.25-17.128,38.25-38.25V434.25h38.25V243H114.559C93.486,243,76.966,260.177,76.393,281.238z M535.608,281.238
	C535.033,260.177,518.514,243,497.441,243H382.5v191.25h38.25V625.5c0,21.122,17.128,38.25,38.25,38.25h114.75
	c21.121,0,38.25-17.128,38.25-38.25v-52.594C607.864,417.779,538.608,393.418,535.608,281.238z M210.375,128.25h-76.5
	c-10.566,0-19.125,8.559-19.125,19.125v57.375H229.5v-57.375C229.5,136.808,220.942,128.25,210.375,128.25z M267.75,434.25h76.5V243
	h-76.5V434.25z"/>
</svg>
